name D:\school\WTK\thesis\model\3dpredictsim\Results\debug_batch\Pog_s1_tmt_aCst_d05_k500_ig24_act_TTC.mot
datacolumns 128
datarows 4
range 0.00000000 0.03796620
endheader
time	pelvis_tilt	pelvis_list	pelvis_rotation	pelvis_tx	pelvis_ty	pelvis_tz	hip_flexion_l	hip_adduction_l	hip_rotation_l	hip_flexion_r	hip_adduction_r	hip_rotation_r	knee_angle_l	knee_angle_r	ankle_angle_l	ankle_angle_r	subtalar_angle_l	subtalar_angle_r	tmt_angle_l	tmt_angle_r	mtp_angle_l	mtp_angle_r	lumbar_extension	lumbar_bending	lumbar_rotation	arm_flex_l	arm_add_l	arm_rot_l	arm_flex_r	arm_add_r	arm_rot_r	elbow_flex_l	elbow_flex_r	pro_sup_l	pro_sup_r	glut_med1_l/activation	glut_med2_l/activation	glut_med3_l/activation	glut_min1_l/activation	glut_min2_l/activation	glut_min3_l/activation	semimem_l/activation	semiten_l/activation	bifemlh_l/activation	bifemsh_l/activation	sar_l/activation	add_long_l/activation	add_brev_l/activation	add_mag1_l/activation	add_mag2_l/activation	add_mag3_l/activation	tfl_l/activation	pect_l/activation	grac_l/activation	glut_max1_l/activation	glut_max2_l/activation	glut_max3_l/activation	iliacus_l/activation	psoas_l/activation	quad_fem_l/activation	gem_l/activation	peri_l/activation	rect_fem_l/activation	vas_med_l/activation	vas_int_l/activation	vas_lat_l/activation	med_gas_l/activation	lat_gas_l/activation	soleus_l/activation	tib_post_l/activation	flex_dig_l/activation	flex_hal_l/activation	tib_ant_l/activation	per_brev_l/activation	per_long_l/activation	per_tert_l/activation	ext_dig_l/activation	ext_hal_l/activation	ercspn_l/activation	intobl_l/activation	extobl_l/activation	glut_med1_r/activation	glut_med2_r/activation	glut_med3_r/activation	glut_min1_r/activation	glut_min2_r/activation	glut_min3_r/activation	semimem_r/activation	semiten_r/activation	bifemlh_r/activation	bifemsh_r/activation	sar_r/activation	add_long_r/activation	add_brev_r/activation	add_mag1_r/activation	add_mag2_r/activation	add_mag3_r/activation	tfl_r/activation	pect_r/activation	grac_r/activation	glut_max1_r/activation	glut_max2_r/activation	glut_max3_r/activation	iliacus_r/activation	psoas_r/activation	quad_fem_r/activation	gem_r/activation	peri_r/activation	rect_fem_r/activation	vas_med_r/activation	vas_int_r/activation	vas_lat_r/activation	med_gas_r/activation	lat_gas_r/activation	soleus_r/activation	tib_post_r/activation	flex_dig_r/activation	flex_hal_r/activation	tib_ant_r/activation	per_brev_r/activation	per_long_r/activation	per_tert_r/activation	ext_dig_r/activation	ext_hal_r/activation	ercspn_r/activation	intobl_r/activation	extobl_r/activation	
          0.00000000	         -2.92957726	         -1.32177921	          8.97628503	          0.00000000	          0.85476305	         -0.00316999	        -16.44783485	         -2.90227458	          8.54715234	         33.39606367	          0.24952402	         -0.52279362	        -15.83414201	        -14.60498289	         -8.91532466	          9.23641388	         17.19617121	          0.06560289	          2.70005557	          0.04249318	         28.50842534	         -0.08078811	         -0.32414649	         -1.27028817	         -3.47495813	          3.37325915	        -13.51335671	         17.93068263	        -12.72160409	        -13.60793260	          8.37428794	         47.70617467	         18.36422509	         86.51662706	         86.51662706	          0.12895829	          0.08338530	          0.07969146	          0.17556461	          0.13018268	          0.08026599	          0.05000106	          0.05000008	          0.05000008	          0.05000026	          0.07331771	          0.05996347	          0.05000013	          0.05000013	          0.05000020	          0.05000016	          0.16440797	          0.05000653	          0.05000025	          0.05000253	          0.05000098	          0.05000033	          0.38503660	          0.61024927	          0.05000019	          0.05000067	          0.06979270	          0.31958786	          0.07331792	          0.05000038	          0.05103136	          0.15902847	          0.23687484	          0.06054620	          0.15764145	          0.19915627	          0.20780598	          0.05000004	          0.43780449	          0.36284278	          0.05000009	          0.27000050	          0.05000022	          0.05000000	          0.05000002	          0.05000005	          0.10838489	          0.05000009	          0.05001015	          0.05000008	          0.05000010	          0.05000029	          0.19062091	          0.06054666	          0.12483326	          0.05984290	          0.05000096	          0.06054765	          0.09505981	          0.21193377	          0.16189614	          0.11532659	          0.05000093	          0.05004078	          0.07625757	          0.05000084	          0.08190161	          0.10345923	          0.05698751	          0.05960035	          0.24317107	          0.05001544	          0.05000056	          0.05000006	          0.05000478	          0.06638341	          0.05044740	          0.06054617	          0.06054619	          0.06054616	          0.05838362	          0.05000060	          0.06054721	          0.46870836	          0.30995049	          0.19926924	          0.08838788	          0.53829315	          0.25794662	          0.05000005	          0.13819452	          0.11930597	
          0.01265540	         -2.92907157	         -1.24229681	          9.16318386	          0.02068298	          0.85350047	         -0.00278796	        -16.57613748	         -3.08837010	          8.24082485	         32.65363508	          0.52679300	         -0.32525471	        -17.23701840	        -14.66486011	        -11.88412016	          8.60715335	         17.50811332	         -0.29416213	          2.09892467	          0.06927874	         30.33678553	         -0.07540562	         -0.04607259	         -1.13064413	         -3.58826711	          2.82320389	        -13.58196667	         18.17022365	        -14.27025857	        -13.58138622	          8.28441452	         49.02420893	         18.36023039	         86.51662706	         86.51662706	          0.10649587	          0.06886101	          0.07331618	          0.14498413	          0.10750701	          0.06628507	          0.05000159	          0.05000014	          0.05000020	          0.05000025	          0.06054708	          0.13910134	          0.16835871	          0.12569739	          0.05013297	          0.05000111	          0.13577080	          0.08598670	          0.05542982	          0.05000137	          0.05000097	          0.05000104	          0.31796945	          0.50395373	          0.07293974	          0.07331488	          0.06054696	          0.26392082	          0.06054853	          0.13018180	          0.06054809	          0.13132828	          0.19561506	          0.05000010	          0.13018285	          0.16446647	          0.17160953	          0.22923855	          0.45378364	          0.34211181	          0.48472994	          0.43387029	          0.18907230	          0.05000006	          0.07331675	          0.06647376	          0.08950611	          0.05943195	          0.05000008	          0.06054639	          0.06054572	          0.05000119	          0.15741786	          0.05000045	          0.10308935	          0.05000019	          0.05000118	          0.05000141	          0.07850202	          0.26780075	          0.19423590	          0.13031087	          0.05000020	          0.05000082	          0.06297486	          0.06054606	          0.08995485	          0.11820029	          0.05000019	          0.05000033	          0.45138473	          0.06054729	          0.09234771	          0.07331648	          0.21186465	          0.21652244	          0.18894774	          0.05000001	          0.05000002	          0.05000000	          0.05000003	          0.07331540	          0.05000108	          0.64944721	          0.30693773	          0.23078008	          0.50555104	          0.62794451	          0.42827682	          0.05000000	          0.11412326	          0.09852480	
          0.02531080	         -2.92277645	         -1.16671263	          9.31119119	          0.04156322	          0.85188562	         -0.00242859	        -16.50548000	         -3.23702841	          7.91561647	         31.78383078	          0.78558899	         -0.05979219	        -19.00491999	        -15.31949085	        -14.66759010	          7.85271365	         17.74517809	         -0.67372771	          1.49121679	         -0.06277509	         31.25414824	         -0.14216852	          0.23608183	         -0.97059296	         -3.68134993	          2.20582461	        -13.66157193	         18.33800579	        -15.78558021	        -13.56656766	          8.29192556	         50.32361236	         18.30209933	         86.51662706	         86.51662706	          0.08794605	          0.05686674	          0.06054614	          0.11973028	          0.08878107	          0.05473936	          0.07049267	          0.06054622	          0.06054642	          0.05000011	          0.05000087	          0.15454893	          0.27404617	          0.15927426	          0.08591964	          0.09244069	          0.11212175	          0.07102382	          0.06054673	          0.06054570	          0.06054652	          0.06054691	          0.26258432	          0.45082059	          0.06054653	          0.06054636	          0.05000068	          0.21795007	          0.05000205	          0.10750626	          0.05000163	          0.10845301	          0.16154208	          0.05000000	          0.10750710	          0.13581908	          0.14171793	          0.40288983	          0.51168549	          0.34869283	          0.72052286	          0.54879621	          0.34545288	          0.07617895	          0.06054616	          0.05489512	          0.26934498	          0.25445163	          0.41083863	          0.05000031	          0.05000010	          0.35276064	          0.13640532	          0.09934470	          0.10950862	          0.05000008	          0.05000019	          0.07331686	          0.18675082	          0.26018722	          0.23763219	          0.16969533	          0.05000011	          0.06055677	          0.13044619	          0.05000007	          0.17595029	          0.17770784	          0.05700358	          0.05000035	          0.37276083	          0.05000104	          0.28765040	          0.06054594	          0.17496128	          0.17880776	          0.15603612	          0.06054614	          0.06054615	          0.06054615	          0.06054609	          0.06054529	          0.06054615	          0.56040475	          0.36449339	          0.19058198	          0.42252205	          0.64461206	          0.43385720	          0.05242425	          0.09424484	          0.08136337	
          0.03796620	         -2.91366671	         -1.10173874	          9.41560997	          0.06223389	          0.85001920	         -0.00206485	        -16.16972975	         -3.35296902	          7.59374868	         30.85514396	          1.03691483	          0.23741884	        -21.25121148	        -16.09123418	        -16.85850673	          7.23767789	         17.89129446	         -1.06163964	          1.02495046	         -0.01974917	         30.24632713	         -0.15598414	          0.48790158	         -0.78540718	         -3.75407588	          1.59055844	        -13.74039963	         18.44267258	        -17.17650701	        -13.56649196	          8.44860780	         51.55864812	         18.13451600	         86.51662706	         86.51662706	          0.11067531	          0.05000010	          0.05000004	          0.16974831	          0.07331709	          0.05000053	          0.10790544	          0.05000010	          0.05000026	          0.05000009	          0.06054651	          0.12762909	          0.22631180	          0.13153130	          0.07095392	          0.07633907	          0.09259227	          0.05865738	          0.05000057	          0.05000061	          0.05000054	          0.05000069	          0.21684645	          0.44025646	          0.05000032	          0.05000040	          0.05000025	          0.17998672	          0.06219041	          0.08878084	          0.08878089	          0.08956224	          0.13340406	          0.05000003	          0.08878110	          0.11216161	          0.11703297	          0.34478638	          0.42255826	          0.28927870	          0.62671008	          0.74387056	          0.28528061	          0.12017440	          0.05000000	          0.05000001	          0.33437068	          0.42206177	          0.52229451	          0.12083577	          0.25270509	          0.29131589	          0.11264572	          0.10367259	          0.09043402	          0.07331642	          0.05000026	          0.06054626	          0.15422185	          0.21486692	          0.22935515	          0.18505267	          0.05000009	          0.05000886	          0.10772465	          0.29023162	          0.24966444	          0.21396420	          0.05000001	          0.05000002	          0.30783205	          0.07364456	          0.23754654	          0.05000000	          0.14448624	          0.23262510	          0.17762421	          0.05000000	          0.05000001	          0.05000000	          0.05000000	          0.05000008	          0.05000006	          0.72999141	          0.39102796	          0.19839281	          0.68678197	          0.74966359	          0.54480771	          0.06459607	          0.08758804	          0.06719118	
